<svg xmlns="http://www.w3.org/2000/svg" xmlns:svg="http://www.w3.org/2000/svg" id="svg12" width="24" height="24" fill="none" version="1.1" viewBox="0 0 24 24"><path id="path2" stroke="currentColor" stroke-linecap="round" stroke-linejoin="round" stroke-width="1.5" d="m 14.75,7 c 0,1.24264 1.0074,2.25 2.25,2.25 1.2426,0 2.25,-1.00736 2.25,-2.25 0,-1.24264 -1.0074,-2.25 -2.25,-2.25 -1.2426,0 -2.25,1.00736 -2.25,2.25 z" style="stroke:#fff;stroke-opacity:1"/><path id="path4" stroke="currentColor" stroke-linecap="round" stroke-linejoin="round" stroke-width="1.5" d="M9.25 12C9.25 13.2426 8.24264 14.25 7 14.25C5.75736 14.25 4.75 13.2426 4.75 12C4.75 10.7574 5.75736 9.75 7 9.75C8.24264 9.75 9.25 10.7574 9.25 12Z" style="stroke:#fff;stroke-opacity:1"/><path id="path6" stroke="currentColor" stroke-linecap="round" stroke-linejoin="round" stroke-width="1.5" d="M19.25 17C19.25 18.2426 18.2426 19.25 17 19.25C15.7574 19.25 14.75 18.2426 14.75 17C14.75 15.7574 15.7574 14.75 17 14.75C18.2426 14.75 19.25 15.7574 19.25 17Z" style="stroke:#fff;stroke-opacity:1"/><path id="path8" stroke="currentColor" stroke-linecap="round" stroke-linejoin="round" stroke-width="1.5" d="M14.5 16L9 13.5" style="stroke:#fff;stroke-opacity:1"/><path id="path10" stroke="currentColor" stroke-linecap="round" stroke-linejoin="round" stroke-width="1.5" d="M14.5 8.5L9 11" style="stroke:#fff;stroke-opacity:1"/></svg>