<svg xmlns="http://www.w3.org/2000/svg" xmlns:svg="http://www.w3.org/2000/svg" id="svg14" width="24" height="24" fill="none" version="1.1" viewBox="0 0 24 24"><path id="path2" stroke="currentColor" stroke-linecap="round" stroke-linejoin="round" d="M6.5 6C6.5 6.27614 6.27614 6.5 6 6.5C5.72386 6.5 5.5 6.27614 5.5 6C5.5 5.72386 5.72386 5.5 6 5.5C6.27614 5.5 6.5 5.72386 6.5 6Z" style="stroke:#fff;stroke-opacity:1"/><path id="path4" stroke="currentColor" stroke-linecap="round" stroke-linejoin="round" d="M6.5 12C6.5 12.2761 6.27614 12.5 6 12.5C5.72386 12.5 5.5 12.2761 5.5 12C5.5 11.7239 5.72386 11.5 6 11.5C6.27614 11.5 6.5 11.7239 6.5 12Z" style="stroke:#fff;stroke-opacity:1"/><path id="path6" stroke="currentColor" stroke-linecap="round" stroke-linejoin="round" d="M6.5 18C6.5 18.2761 6.27614 18.5 6 18.5C5.72386 18.5 5.5 18.2761 5.5 18C5.5 17.7239 5.72386 17.5 6 17.5C6.27614 17.5 6.5 17.7239 6.5 18Z" style="stroke:#fff;stroke-opacity:1"/><path id="path8" stroke="currentColor" stroke-linecap="round" stroke-linejoin="round" stroke-width="1.5" d="M9.75 6H18.25" style="stroke:#fff;stroke-opacity:1"/><path id="path10" stroke="currentColor" stroke-linecap="round" stroke-linejoin="round" stroke-width="1.5" d="M9.75 12H18.25" style="stroke:#fff;stroke-opacity:1"/><path id="path12" stroke="currentColor" stroke-linecap="round" stroke-linejoin="round" stroke-width="1.5" d="M9.75 18H18.25" style="stroke:#fff;stroke-opacity:1"/></svg>